<?xml version="1.0" standalone="no"?>
<!DOCTYPE svg PUBLIC "-//W3C//DTD SVG 1.1//EN"
  "http://www.w3.org/Graphics/SVG/1.1/DTD/svg11.dtd">
<svg width="65.30000019073486mm" height="65.30000019073485mm" viewBox="-75 -56.999999999999986 65.30000019073486 65.30000019073485" xmlns="http://www.w3.org/2000/svg" version="1.1">
	<title>svgOutput</title>
	<desc>made with tinkercad</desc>
<path d="M -16.02080726623535 -41.91200637817382 L -16.019380569458008 -41.909614562988274 L -16.018674850463867 -41.908428192138665 L -16.016069412231445 -41.90407943725585 L -16.013267517089844 -41.89941787719726 L -16.013017654418945 -41.899002075195305 L -16.0108642578125 -41.89540863037109 L -16.009552001953125 -41.89321899414062 L -16.005706787109375 -41.88680267333984 L -16.00470733642578 -41.88513565063476 L -15.450111389160156 -40.95999908447265 L -14.437041282653809 -39.270069122314446 L -14.437036514282227 -39.270061492919915 L -14.437000274658203 -39.270000457763665 L -14.434635162353516 -39.26501083374023 L -14.431281089782715 -39.2579116821289 L -14.42769718170166 -39.2503433227539 L -14.4239501953125 -39.24239349365234 L -14.420055389404297 -39.234180450439446 L -14.416105270385742 -39.22579956054687 L -13.299128532409668 -36.86399841308593 L -13.11330795288086 -36.47109222412109 L -13.109341621398926 -36.462722778320305 L -13.109000205993652 -36.4620018005371 L -13.108972549438477 -36.46192550659179 L -13.106266975402832 -36.454353332519524 L -12.520180702209473 -34.81600189208984 L -12.288000106811523 -34.1669578552246 L -12.080118179321289 -33.58584594726562 L -12.077123641967773 -33.57745742797851 L -12.075026512145996 -33.57162475585937 L -12.068778038024902 -33.554153442382805 L -12.063800811767578 -33.540229797363274 L -12.062999725341797 -33.53799819946288 L -12.062990188598633 -33.53796005249023 L -12.062909126281738 -33.537639617919915 L -11.870052337646484 -32.76800155639648 L -11.321040153503418 -30.57703781127929 L -11.319177627563477 -30.569576263427727 L -11.31860065460205 -30.567302703857415 L -11.318077087402344 -30.565242767333977 L -11.307999610900879 -30.524999618530266 L -11.033035278320312 -28.67200088500976 L -10.85200023651123 -27.451999664306634 L -10.711073875427246 -24.57600021362304 L -10.699999809265137 -24.35000038146972 L -10.85200023651123 -21.247999191284176 L -10.855733871459961 -21.22282791137695 L -10.965961456298828 -20.479999542236325 L -11.30237865447998 -18.212869644165036 L -11.307999610900879 -18.174999237060543 L -11.308799743652344 -18.171779632568356 L -11.756783485412598 -16.38400077819824 L -12.048311233520508 -15.220589637756344 L -12.062999725341797 -15.16199970245361 L -12.288000106811523 -14.53303241729736 L -13.091113090515137 -12.28800010681152 L -13.109000205993652 -12.237999916076657 L -13.118799209594727 -12.21728420257568 L -14.42247486114502 -9.460716247558592 L -14.437000274658203 -9.43000030517578 L -14.437009811401367 -9.4299840927124 L -14.438311576843262 -9.427809715270994 L -14.441903114318848 -9.421814918518065 L -15.179145812988281 -8.19200038909912 L -16.006141662597656 -6.812465190887449 L -16.030757904052734 -6.771395206451414 L -16.034000396728516 -6.765999794006346 L -16.384000778198242 -6.293972969055174 L -17.884000778198242 -4.270999908447265 L -18.042648315429688 -4.09600019454956 L -19.969999313354492 -1.970000028610229 L -20.479999542236328 -1.5076532363891597 L -22.143043518066406 1.1102230246251565e-16 L -22.270999908447266 0.11599999666213998 L -24.576000213623047 1.8251181840896602 L -24.766000747680664 1.9659999608993526 L -27.43000030517578 3.562999963760375 L -28.5570068359375 4.09600019454956 L -28.672000885009766 4.1503844261169425 L -30.238000869750977 4.890999794006347 L -32.768001556396484 5.79605484008789 L -33.1619987487793 5.936999797821044 L -33.34299850463867 5.981999874114989 L -33.35188674926758 5.985230922698974 L -33.39799880981445 6.001999855041502 L -34.816001892089844 6.357241153717039 L -36.268001556396484 6.721000194549559 L -36.86399841308594 6.809371948242186 L -38.9119987487793 7.113038063049315 L -39.19499969482422 7.155000209808348 L -40.959999084472656 7.241607666015623 L -42.150001525878906 7.3000001907348615 L -42.25 7.2950000762939435 L -42.349998474121094 7.3000001907348615 L -43.007999420166016 7.267757415771483 L -45.055999755859375 7.167404174804686 L -45.45199966430664 7.147999763488768 L -48.525001525878906 6.691999912261961 L -48.534671783447266 6.689577102661131 L -49.152000427246094 6.5348868370056135 L -51.494388580322266 5.947929382324218 L -51.53799819946289 5.936999797821044 L -51.54481506347656 5.93456745147705 L -53.24800109863281 5.325288295745849 L -54.425968170166016 4.903894901275634 L -54.46200180053711 4.890999794006347 L -56.14299392700195 4.09600019454956 L -57.27000045776367 3.562999963760375 L -57.34400177001953 3.518638849258422 L -59.933998107910156 1.9659999608993526 L -61.439998626708984 0.8493266701698302 L -62.42900085449219 0.11599999666213998 L -62.55695724487305 1.1102230246251565e-16 L -64.7300033569336 -1.970000028610229 L -64.80071258544922 -2.04800009727478 L -65.53600311279297 -2.859072923660278 L -66.6573486328125 -4.09600019454956 L -66.81600189208984 -4.270999908447265 L -68.66600036621094 -6.765999794006346 L -68.67037200927734 -6.773303031921385 L -69.52084350585938 -8.19200038909912 L -69.63200378417969 -8.37742519378662 L -70.23461151123047 -9.382652282714842 L -70.25928497314453 -9.423804283142088 L -70.26300048828125 -9.43000030517578 L -70.27853393554688 -9.462822914123533 L -71.58220672607422 -12.219390869140621 L -71.59100341796875 -12.237999916076657 L -71.60888671875 -12.28800010681152 L -72.63700103759766 -15.16199970245361 L -72.6522445678711 -15.222805023193356 L -72.9432144165039 -16.38400077819824 L -73.20774841308594 -17.439689636230465 L -73.39175415039062 -18.17399406433105 L -73.39199829101562 -18.174999237060543 L -73.39794921875 -18.215126037597653 L -73.43013000488281 -18.431999206542965 L -73.5137710571289 -18.995637893676754 L -73.72799682617188 -20.439350128173825 L -73.84459686279297 -21.2250862121582 L -73.8479995727539 -21.247999191284176 L -74 -24.35000038146972 L -73.98892211914062 -24.57600021362304 L -73.8479995727539 -27.451999664306634 L -73.72799682617188 -28.26068496704101 L -73.66696166992188 -28.67200088500976 L -73.39199829101562 -30.524999618530266 L -73.3431396484375 -30.719999313354485 L -72.82994842529297 -32.76800155639648 L -72.63703155517578 -33.53788757324218 L -72.63700103759766 -33.53799819946288 L -72.6191177368164 -33.58795547485351 L -72.1798095703125 -34.81600189208984 L -71.60887908935547 -36.411975860595696 L -71.59100341796875 -36.46199798583984 L -71.59100341796875 -36.4620018005371 L -71.58173370361328 -36.48159408569335 L -71.40087890625 -36.86399841308593 L -70.29914093017578 -39.1935806274414 L -70.28881072998047 -39.21542739868163 L -70.2744369506836 -39.24581909179687 L -70.26300048828125 -39.270000457763665 L -70.26300048828125 -39.270000457763665 L -69.63200378417969 -40.32258987426757 L -69.24988555908203 -40.95999908447265 L -68.66600036621094 -41.93399810791015 L -68.6522445678711 -41.95256042480468 L -68.64569854736328 -41.96138763427734 L -66.8389663696289 -44.39803314208984 L -66.81600189208984 -44.42899322509765 L -66.81600189208984 -44.42900085449218 L -66.79131317138672 -44.45623016357421 L -65.53600311279297 -45.84092712402343 L -64.75398254394531 -46.703540802001946 L -64.7300033569336 -46.72999954223632 L -64.72999572753906 -46.73000335693359 L -62.42900085449219 -48.81600189208983 L -62.421260833740234 -48.82173919677733 L -61.97585678100586 -49.15200042724608 L -59.9842529296875 -50.628742218017564 L -59.93519973754883 -50.66511154174803 L -59.933998107910156 -50.66600036621092 L -59.8998908996582 -50.68644332885741 L -57.34400177001953 -52.21863555908202 L -57.333492279052734 -52.224933624267564 L -57.27000045776367 -52.263000488281236 L -57.21572494506836 -52.28868484497069 L -55.187294006347656 -53.2480010986328 L -54.52772521972656 -53.55993270874022 L -54.515419006347656 -53.56574249267577 L -54.46200180053711 -53.59099960327147 L -54.46173095703125 -53.59109497070311 L -51.53799819946289 -54.63700103759764 L -49.152000427246094 -55.23488616943358 L -48.525001525878906 -55.39199829101561 L -45.45199966430664 -55.84799957275389 L -42.349998474121094 -55.999999999999986 L -40.959999084472656 -55.93188858032225 L -39.24800109863281 -55.84799957275389 L -36.17499923706055 -55.39199829101561 L -33.1619987487793 -54.63700103759764 L -32.768001556396484 -54.49605560302733 L -30.238000869750977 -53.59099960327147 L -30.221879959106445 -53.58338165283202 L -29.512733459472656 -53.2480010986328 L -28.672000885009766 -52.85038757324217 L -27.516752243041992 -52.3040313720703 L -27.473495483398438 -52.28358459472655 L -27.43000030517578 -52.263000488281236 L -27.404935836791992 -52.247989654541 L -24.83203125 -50.70559692382811 L -24.766000747680664 -50.66600036621092 L -24.576000213623047 -50.525119781494126 L -22.724145889282227 -49.15200042724608 L -22.270999908447266 -48.81600189208983 L -20.479999542236328 -47.1923484802246 L -19.969999313354492 -46.72999954223632 L -18.452415466308594 -45.05599975585937 L -17.884000778198242 -44.42900085449218 L -16.384000778198242 -42.40602874755859 L -16.034225463867188 -41.934307098388665 L -16.034000396728516 -41.93399810791015 L -16.023767471313477 -41.916919708251946 L -16.022518157958984 -41.91484069824218 L -16.022001266479492 -41.91398620605468 L -16.02080726623535 -41.91200637817382 M -29.38800048828125 -41.950000762939446 L -29.790842056274414 -42.060737609863274 L -29.87662696838379 -42.084297180175774 L -30.058000564575195 -42.1339988708496 L -30.071853637695312 -42.13626480102538 L -30.517000198364258 -42.208999633789055 L -31.003999710083008 -42.28799819946288 L -31.958999633789062 -42.33900070190429 L -32.768001556396484 -42.29579544067382 L -32.91400146484375 -42.28799819946288 L -33.86000061035156 -42.1339988708496 L -34.78799819946289 -41.88000106811523 L -35.6879997253418 -41.52700042724609 L -36.551998138427734 -41.07899856567382 L -36.733375549316406 -40.95999908447265 L -37.37200164794922 -40.54100036621093 L -38.13999938964844 -39.916999816894524 L -38.8489990234375 -39.21400070190429 L -39.49100112915039 -38.43799972534179 L -40.060001373291016 -37.597000122070305 L -40.551998138427734 -36.69900131225585 L -40.959999084472656 -35.754314422607415 L -40.96099853515625 -35.75199890136718 L -41.28300094604492 -34.765998840332024 L -41.51499938964844 -33.74999999999999 L -41.648651123046875 -32.76800155639648 L -41.65599822998047 -32.71400070190429 L -41.65664291381836 -32.698230743408196 L -41.69674301147461 -31.786333084106438 L -41.70199966430664 -31.667999267578118 L -41.700191497802734 -31.62690353393554 L -41.656005859375 -30.623107910156243 L -41.65599822998047 -30.622999191284173 L -41.64176940917969 -30.51851272583007 L -41.51884460449219 -29.6153335571289 L -41.51499938964844 -29.58699989318847 L -41.514976501464844 -29.5868911743164 L -41.30606460571289 -28.67200088500976 L -41.28300094604492 -28.570999145507805 L -40.96099853515625 -27.58499908447265 L -40.959999084472656 -27.582685470581048 L -40.551998138427734 -26.638000488281243 L -40.060001373291016 -25.739999771118157 L -40.0107421875 -25.667142868041985 L -39.51472854614258 -24.934017181396477 L -39.49100112915039 -24.899000167846673 L -39.22377395629883 -24.57600021362304 L -38.8489990234375 -24.122999191284173 L -38.13999938964844 -23.42000007629394 L -37.37200164794922 -22.795999526977536 L -36.86399841308594 -22.462701797485348 L -36.551998138427734 -22.257999420166012 L -35.6879997253418 -21.80999946594238 L -34.78799819946289 -21.45700073242187 L -33.86000061035156 -21.20299911499023 L -32.91400146484375 -21.04899978637695 L -32.768001556396484 -21.041202545166012 L -31.958999633789062 -20.997999191284176 L -31.003999710083008 -21.04899978637695 L -30.058000564575195 -21.20299911499023 L -29.131000518798828 -21.45700073242187 L -28.672000885009766 -21.637029647827145 L -28.231000900268555 -21.80999946594238 L -27.365999221801758 -22.257999420166012 L -26.54599952697754 -22.795999526977536 L -25.777999877929688 -23.42000007629394 L -25.06999969482422 -24.122999191284173 L -24.69522476196289 -24.57600021362304 L -24.576000213623047 -24.720109939575188 L -24.42824363708496 -24.89870643615722 L -24.428020477294922 -24.898975372314446 L -24.42799949645996 -24.899000167846673 L -24.40427017211914 -24.934017181396477 L -23.907384872436523 -25.667142868041985 L -23.857999801635742 -25.739999771118157 L -23.365999221801758 -26.638000488281243 L -22.95800018310547 -27.58499908447265 L -22.63599967956543 -28.570999145507805 L -22.612836837768555 -28.67200088500976 L -22.402999877929688 -29.58699989318847 L -22.26300048828125 -30.622999191284173 L -22.215999603271484 -31.667999267578118 L -22.26300048828125 -32.71400070190429 L -22.27029800415039 -32.76800155639648 L -22.402999877929688 -33.74999999999999 L -22.43400001525879 -33.88700103759765 L -22.63599967956543 -34.765998840332024 L -22.64688491821289 -34.79916381835937 L -22.652379989624023 -34.81600189208984 L -22.909439086914062 -35.603401184082024 L -22.937000274658203 -35.68799972534179 L -22.95800018310547 -35.75199890136718 L -22.964706420898438 -35.767585754394524 L -23.00012969970703 -35.84991836547851 L -23.356060028076172 -36.67605972290038 L -23.365999221801758 -36.69900131225585 L -23.45633316040039 -36.86399841308593 L -23.602462768554688 -37.13091659545898 L -23.665172576904297 -37.24537277221679 L -23.85793685913086 -37.59688568115234 L -23.857999801635742 -37.597000122070305 L -23.972999572753906 -37.76699829101562 L -24.002521514892578 -37.8106460571289 L -24.39962387084961 -38.39626312255859 L -24.42799949645996 -38.43799972534179 L -24.576000213623047 -38.616889953613274 L -25.06999969482422 -39.21400070190429 L -25.230587005615234 -39.37284088134765 L -25.276268005371094 -39.41827011108398 L -25.422042846679688 -39.56404495239257 L -25.429000854492188 -39.570999145507805 L -25.451650619506836 -39.59339523315429 L -25.690515518188477 -39.830207824707024 L -25.756240844726562 -39.895366668701165 L -25.777999877929688 -39.916999816894524 L -25.77833366394043 -39.91727066040038 L -25.793262481689453 -39.92940139770507 L -26.545597076416016 -40.54067230224609 L -26.54599952697754 -40.54100036621093 L -26.834880828857422 -40.730388641357415 L -26.924705505371094 -40.789295196533196 L -27.184926986694336 -40.95999908447265 L -27.25200080871582 -41.00400161743163 L -27.365999221801758 -41.07899856567382 L -27.442081451416016 -41.11837768554687 L -28.19684600830078 -41.509284973144524 L -28.231000900268555 -41.52700042724609 L -28.23331642150879 -41.52791213989257 L -28.403722763061523 -41.59504318237304 L -28.51857566833496 -41.640090942382805 L -28.672000885009766 -41.70019149780273 L -29.131000518798828 -41.88000106811523 L -29.151212692260742 -41.885505676269524 L -29.34065055847168 -41.93710327148437 L -29.38800048828125 -41.950000762939446 M -45.10499954223633 -52.854999542236314 L -45.055999755859375 -52.85740661621092 L -43.007999420166016 -52.957946777343736 L -42.29399871826172 -52.993000030517564 L -42.43809509277344 -52.99999618530272 L -42.44255447387695 -53.000209808349595 L -42.44659423828125 -53.00040817260741 L -42.46982192993164 -53.00153350830077 L -42.49734878540039 -53.002872467041 L -42.5 -53.00299835205077 L -42.50265121459961 -53.002872467041 L -43.007999420166016 -52.97823333740233 L -45.055999755859375 -52.878383636474595 L -45.271060943603516 -52.86789703369139 L -45.391998291015625 -52.861999511718736 L -45.45936584472656 -52.85211944580077 L -45.459503173828125 -52.85210037231444 L -45.60818099975586 -52.830295562744126 L -47.104000091552734 -52.61093902587889 L -48.25600051879883 -52.44200134277342 L -48.65380096435547 -52.343540191650376 L -49.152000427246094 -52.220233917236314 L -51.06399917602539 -51.747001647949205 L -51.75002670288086 -51.50439834594725 L -51.894039154052734 -51.45347213745116 L -52.61080551147461 -51.20000076293944 L -53.24800109863281 -50.97466659545897 L -53.790000915527344 -50.78300094604491 L -53.88444519042969 -50.73885345458983 L -54.69585418701172 -50.35965728759764 L -55.29600143432617 -50.07919311523436 L -56.38960647583008 -49.56811904907225 L -56.4069938659668 -49.560001373291 L -56.40700149536133 -49.560001373291 L -56.428653717041016 -49.54717636108397 L -57.09596633911133 -49.15200042724608 L -57.34400177001953 -49.00511550903319 L -58.8216438293457 -48.130069732666 L -58.89099884033203 -48.08900070190428 L -58.895103454589844 -48.08599472045897 L -60.125160217285156 -47.18448638916015 L -60.2349739074707 -47.10400009155273 L -61.134918212890625 -46.44442749023437 L -61.215877532958984 -46.38508987426757 L -61.215999603271484 -46.384998321533196 L -61.2210693359375 -46.380439758300774 L -61.265987396240234 -46.34023284912109 L -61.439998626708984 -46.18439102172851 L -62.69997024536133 -45.05599975585937 L -63.361000061035156 -44.46400070190429 L -63.40394592285156 -44.41719818115234 L -64.32876586914062 -43.40917587280273 L -64.32947540283203 -43.40839767456054 L -64.43519592285156 -43.29316329956054 L -64.69682312011719 -43.00799942016601 L -65.30352783203125 -42.34671020507812 L -65.30416870117188 -42.34597396850585 L -65.30509948730469 -42.34497451782226 L -65.30599975585938 -42.344001770019524 L -65.30601501464844 -42.34397888183593 L -65.30648803710938 -42.3433494567871 L -65.53600311279297 -42.037422180175774 L -66.34429931640625 -40.95999908447265 L -67.02999877929688 -40.046001434326165 L -67.58721923828125 -39.1276512145996 L -67.66764831542969 -38.99510192871093 L -67.71807098388672 -38.91199874877929 L -68.38603973388672 -37.81113052368163 L -68.45879364013672 -37.69122695922851 L -68.48003387451172 -37.65622329711913 L -68.5189437866211 -37.59209442138671 L -68.51896667480469 -37.59205245971679 L -68.51899719238281 -37.59199905395507 L -68.52802276611328 -37.57313919067382 L -68.5308609008789 -37.56721115112304 L -68.53854370117188 -37.55115890502929 L -68.54553985595703 -37.536548614501946 L -68.55616760253906 -37.51434707641601 L -68.86750793457031 -36.86399841308593 L -69.63200378417969 -35.26709365844726 L -69.75183868408203 -35.01676940917968 L -69.75700378417969 -35.00600051879882 L -69.8260498046875 -34.81600189208984 L -69.8465347290039 -34.7596206665039 L -69.84893035888672 -34.753040313720696 L -69.9020004272461 -34.60699844360351 L -69.80311584472656 -34.81600189208984 L -69.63200378417969 -35.17766952514648 L -68.83415222167969 -36.86399841308593 L -68.73999786376953 -37.06299972534179 L -67.63147735595703 -38.91199874877929 L -67.21900177001953 -39.59999847412109 L -66.21029663085938 -40.95999908447265 L -65.53600311279297 -41.86913681030273 L -65.45600128173828 -41.97700119018554 L -64.52142333984375 -43.00799942016601 L -63.46900177001953 -44.16899871826171 L -62.49048614501953 -45.05599975585937 L -61.439998626708984 -46.00824356079101 L -61.277000427246094 -46.15599822998046 L -59.99884033203125 -47.10400009155273 L -58.900001525878906 -47.91899871826171 L -57.34400177001953 -48.85186386108397 L -56.843379974365234 -49.15200042724608 L -56.362998962402344 -49.43999862670897 L -55.29600143432617 -49.944580078124986 L -53.6879997253418 -50.70500183105467 L -53.24800109863281 -50.86245727539061 L -52.304779052734375 -51.20000076293944 L -50.902000427246094 -51.701999664306626 L -49.152000427246094 -52.140415191650376 L -48.03200149536133 -52.42100143432616 L -47.104000091552734 -52.55859756469725 L -45.10499954223633 -52.854999542236314 M -57.242000579833984 -34.33300018310546 L -57.34400177001953 -34.30745697021484 L -57.81700134277344 -34.18899917602538 L -58.374000549316406 -33.98899841308593 L -58.909000396728516 -33.73600006103515 L -59.41699981689453 -33.43199920654296 L -59.891998291015625 -33.07899856567382 L -60.23590087890625 -32.76800155639648 L -60.33100128173828 -32.68199920654296 L -60.729000091552734 -32.24300003051757 L -61.08100128173828 -31.767999649047844 L -61.38600158691406 -31.26000022888183 L -61.439998626708984 -31.14581108093261 L -61.638999938964844 -30.72500038146972 L -61.8380012512207 -30.166999816894524 L -61.981998443603516 -29.593000411987298 L -62.069000244140625 -29.006999969482415 L -62.0854377746582 -28.67200088500976 L -62.097999572753906 -28.41600036621093 L -62.069000244140625 -27.825000762939446 L -61.981998443603516 -27.239000320434563 L -61.8380012512207 -26.665000915527337 L -61.638999938964844 -26.107999801635735 L -61.439998626708984 -25.686403274536126 L -61.38600158691406 -25.572000503540032 L -61.08100128173828 -25.06500053405761 L -60.729000091552734 -24.58900070190429 L -60.71719741821289 -24.57600021362304 L -60.68861389160156 -24.54451370239257 L -60.34164047241211 -24.162666320800774 L -60.33100128173828 -24.15099906921386 L -60.319583892822266 -24.14060974121093 L -59.936893463134766 -23.793661117553707 L -59.891998291015625 -23.75300025939941 L -59.41699981689453 -23.39999961853027 L -58.909000396728516 -23.096000671386715 L -58.374000549316406 -22.8430004119873 L -57.81700134277344 -22.642999649047848 L -57.34400177001953 -22.525367736816403 L -57.242000579833984 -22.499999999999996 L -56.65700149536133 -22.41300010681152 L -56.064998626708984 -22.38400077819824 L -55.4739990234375 -22.41300010681152 L -54.888999938964844 -22.499999999999996 L -54.31399917602539 -22.642999649047848 L -53.75699996948242 -22.8430004119873 L -53.24800109863281 -23.083703994750973 L -53.22200012207031 -23.096000671386715 L -52.7140007019043 -23.39999961853027 L -52.237998962402344 -23.75300025939941 L -51.79999923706055 -24.15099906921386 L -51.413814544677734 -24.57600021362304 L -51.402000427246094 -24.58900070190429 L -51.05252456665039 -25.06158828735351 L -51.050254821777344 -25.064657211303704 L -51.04999923706055 -25.06500053405761 L -51.04179000854492 -25.07872581481933 L -50.77591323852539 -25.520690917968743 L -50.744998931884766 -25.572000503540032 L -50.492000579833984 -26.107999801635735 L -50.292999267578125 -26.665000915527337 L -50.14899826049805 -27.239000320434563 L -50.0620002746582 -27.825000762939446 L -50.03300094604492 -28.41600036621093 L -50.045562744140625 -28.67200088500976 L -50.0620002746582 -29.006999969482415 L -50.14899826049805 -29.593000411987298 L -50.292999267578125 -30.166999816894524 L -50.492000579833984 -30.72500038146972 L -50.744998931884766 -31.26000022888183 L -51.04999923706055 -31.767999649047844 L -51.402000427246094 -32.24300003051757 L -51.79999923706055 -32.68199920654296 L -51.89488220214844 -32.76800155639648 L -52.237998962402344 -33.07899856567382 L -52.7140007019043 -33.43199920654296 L -53.22200012207031 -33.73600006103515 L -53.24800109863281 -33.74829483032226 L -53.75699996948242 -33.98899841308593 L -54.31399917602539 -34.18899917602538 L -54.888999938964844 -34.33300018310546 L -55.4739990234375 -34.419998168945305 L -56.064998626708984 -34.44900131225585 L -56.65700149536133 -34.419998168945305 L -57.242000579833984 -34.33300018310546 M -40.959999084472656 -12.00300025939941 L -41.702999114990234 -12.00300025939941 L -41.702999114990234 -8.19200038909912 L -41.702999114990234 -4.09600019454956 L -41.702999114990234 -3.997999906539916 L -40.959999084472656 -3.997999906539916 L -36.86399841308594 -3.997999906539916 L -33.698001861572266 -3.997999906539916 L -33.698001861572266 -4.09600019454956 L -33.698001861572266 -8.19200038909912 L -33.698001861572266 -12.00300025939941 L -40.959999084472656 -12.00300025939941 z" fill="none" stroke="rgb(255,0,0)" stroke-width="0.001mm" />
</svg>